<svg width="936" height="333" viewBox="0 0 936 333" fill="none" xmlns="http://www.w3.org/2000/svg">
<g clip-path="url(#clip0_86_2)">
<path fill-rule="evenodd" clip-rule="evenodd" d="M936 -40V333H0V-40H936ZM119.789 267.5C121.689 267.5 129.989 259.2 132.089 257.5L144.589 247.2C159.589 235.4 172.389 226 188.389 215.4C189.889 214.4 191.489 213.5 192.989 212.5C205.389 204.3 222.989 194.6 236.489 187.9C249.989 181.2 243.189 184.3 246.589 182.9C250.089 181.4 253.389 179.6 256.889 178.1L261.989 175.8C263.689 175 265.489 174.2 267.389 173.5L277.889 169.1C288.889 164.7 299.789 160.9 311.289 157.1C318.955 154.567 326.755 152.267 334.689 150.2C356.889 144.5 374.889 140.7 397.589 137.5C401.889 136.9 406.389 136.4 410.989 135.8C417.689 134.9 424.789 134.5 431.689 133.9C437.589 133.5 443.889 132.9 449.689 133C451.289 133 451.889 132.8 453.289 132.8C455.755 132.8 458.255 132.8 460.789 132.8C463.289 132.8 465.489 132.6 468.189 132.6C473.189 132.6 477.689 132.9 482.789 132.8L507.789 134.2C513.589 134.8 519.289 135 525.189 135.7C529.489 136.2 534.089 136.8 538.589 137.4C547.089 138.5 556.189 140 564.589 141.7L577.189 144.3C593.089 147.4 615.089 153.7 630.589 158.9C632.689 159.6 634.289 160.2 636.289 160.9L647.489 164.9C654.289 167.1 662.689 170.7 669.089 173.5C675.989 176.6 683.189 179.4 689.989 182.9C691.589 183.7 693.389 184.5 694.989 185.3L712.389 194.3C713.289 194.8 713.889 195.2 714.889 195.7C718.189 197.3 721.389 199.4 724.589 201.1L734.089 206.7C735.689 207.7 737.289 208.6 738.889 209.6C739.589 210 740.289 210.5 741.089 211C748.389 215.6 759.389 222.6 766.189 227.7L774.989 234.1C776.489 235.1 777.889 236.2 779.289 237.3C779.989 237.9 780.689 238.4 781.489 239C786.489 242.7 791.289 246.8 796.189 250.7C799.789 253.5 811.389 263.4 814.489 266.5C817.989 270 819.989 266.1 822.289 263.9L836.689 248.1C837.089 247.6 837.489 247.3 837.889 246.9L856.889 226C857.289 225.5 857.689 225.2 858.089 224.8C861.189 221.7 863.989 218.2 866.989 214.9L873.689 207.7C876.189 204.9 880.189 200.3 882.589 197.9L886.089 194.2C887.889 192.2 888.889 190.9 888.989 189.9V189.1C888.689 187.7 886.989 186.5 884.389 184.2C872.589 173.7 860.489 163.4 847.789 153.9C836.889 145.8 825.989 137.7 814.589 130.2C810.489 127.5 806.289 124.6 802.089 122.1C797.889 119.6 793.689 116.7 789.289 114.2L742.589 88.7L732.189 83.7C726.289 80.8 720.289 78.3 714.289 75.7C699.689 69.3 684.689 63.6 669.589 58.5C652.689 52.9 630.589 45.9 613.589 42.3L570.689 33.6C560.889 31.8 543.289 29.3 534.389 28.6C531.389 28.4 528.089 27.8 524.989 27.6C508.489 26.6 493.289 25.1 475.789 25.2C473.989 25.2 473.089 25 471.289 25H465.389C463.689 25 462.789 25.2 460.989 25.2L445.589 25.4C440.789 25.4 435.789 26.1 430.989 26.1C429.789 26.1 429.689 26.3 428.589 26.3C427.689 26.3 426.889 26.3 425.989 26.3L411.789 27.5C408.689 27.7 405.589 28.3 402.389 28.5C397.789 28.8 392.989 29.6 388.389 30.2C369.989 32.3 344.689 37 327.189 41.3C321.589 42.6 316.089 43.9 310.589 45.4C297.189 48.9 283.889 52.9 270.789 57.2L255.489 62.5C252.889 63.4 250.489 64.3 247.889 65.3C240.489 68 233.089 71.2 225.789 74.2C223.489 75.2 220.889 76.2 218.589 77.3C212.689 80 206.789 82.5 200.989 85.4L156.889 108.5L115.889 134.4C114.789 135.1 113.789 135.9 112.789 136.6L102.289 144.1C101.789 144.5 101.289 144.8 100.789 145.2L88.9887 154.1C87.8887 154.9 87.1887 155.5 86.1887 156.3C81.2887 160 76.5887 164 71.7887 167.8L66.1887 172.5C65.2887 173.3 64.3887 174 63.3887 174.8L56.3887 180.8C55.7887 181.3 55.5887 181.6 54.9887 182.1C53.5887 183.2 52.3887 184.6 50.9887 185.7C45.9887 189.7 48.0887 190.9 51.2887 194.5L57.3887 201.3C57.8887 201.8 58.1887 202.1 58.6887 202.6C59.2887 203.2 59.2887 203.5 59.8887 204L68.4887 213.4C69.0887 214 69.1887 214.2 69.6887 214.8C71.9887 217.6 77.7887 223.2 79.5887 225.6C80.9887 227.4 83.1887 229.2 84.4887 231C86.6887 233.8 91.9887 238.8 94.3887 241.8C95.9887 243.8 97.7887 245.3 99.2887 247.2L114.089 263.4C115.689 265 117.289 268 119.789 268V267.5Z" fill="white"/>
<mask id="path-2-inside-1_86_2" fill="white">
<path fill-rule="evenodd" clip-rule="evenodd" d="M119.789 267.5C121.689 267.5 129.989 259.2 132.089 257.5L144.589 247.2C159.589 235.4 172.389 226 188.389 215.4C189.889 214.4 191.489 213.5 192.989 212.5C205.389 204.3 222.989 194.6 236.489 187.9C249.989 181.2 243.189 184.3 246.589 182.9C250.089 181.4 253.389 179.6 256.889 178.1L261.989 175.8C263.689 175 265.489 174.2 267.389 173.5L277.889 169.1C288.889 164.7 299.789 160.9 311.289 157.1C318.955 154.567 326.755 152.267 334.689 150.2C356.889 144.5 374.889 140.7 397.589 137.5C401.889 136.9 406.389 136.4 410.989 135.8C417.689 134.9 424.789 134.5 431.689 133.9C437.589 133.5 443.889 132.9 449.689 133C451.289 133 451.889 132.8 453.289 132.8C455.755 132.8 458.255 132.8 460.789 132.8C463.289 132.8 465.489 132.6 468.189 132.6C473.189 132.6 477.689 132.9 482.789 132.8L507.789 134.2C513.589 134.8 519.289 135 525.189 135.7C529.489 136.2 534.089 136.8 538.589 137.4C547.089 138.5 556.189 140 564.589 141.7L577.189 144.3C593.089 147.4 615.089 153.7 630.589 158.9C632.689 159.6 634.289 160.2 636.289 160.9L647.489 164.9C654.289 167.1 662.689 170.7 669.089 173.5C675.989 176.6 683.189 179.4 689.989 182.9C691.589 183.7 693.389 184.5 694.989 185.3L712.389 194.3C713.289 194.8 713.889 195.2 714.889 195.7C718.189 197.3 721.389 199.4 724.589 201.1L734.089 206.7C735.689 207.7 737.289 208.6 738.889 209.6C739.589 210 740.289 210.5 741.089 211C748.389 215.6 759.389 222.6 766.189 227.7L774.989 234.1C776.489 235.1 777.889 236.2 779.289 237.3C779.989 237.9 780.689 238.4 781.489 239C786.489 242.7 791.289 246.8 796.189 250.7C799.789 253.5 811.389 263.4 814.489 266.5C817.989 270 819.989 266.1 822.289 263.9L836.689 248.1C837.089 247.6 837.489 247.3 837.889 246.9L856.889 226C857.289 225.5 857.689 225.2 858.089 224.8C861.189 221.7 863.989 218.2 866.989 214.9L873.689 207.7C876.189 204.9 880.189 200.3 882.589 197.9L886.089 194.2C887.889 192.2 888.889 190.9 888.989 189.9V189.1C888.689 187.7 886.989 186.5 884.389 184.2C872.589 173.7 860.489 163.4 847.789 153.9C836.889 145.8 825.989 137.7 814.589 130.2C810.489 127.5 806.289 124.6 802.089 122.1C797.889 119.6 793.689 116.7 789.289 114.2L742.589 88.7L732.189 83.7C726.289 80.8 720.289 78.3 714.289 75.7C699.689 69.3 684.689 63.6 669.589 58.5C652.689 52.9 630.589 45.9 613.589 42.3L570.689 33.6C560.889 31.8 543.289 29.3 534.389 28.6C531.389 28.4 528.089 27.8 524.989 27.6C508.489 26.6 493.289 25.1 475.789 25.2C473.989 25.2 473.089 25 471.289 25H465.389C463.689 25 462.789 25.2 460.989 25.2L445.589 25.4C440.789 25.4 435.789 26.1 430.989 26.1C429.789 26.1 429.689 26.3 428.589 26.3C427.689 26.3 426.889 26.3 425.989 26.3L411.789 27.5C408.689 27.7 405.589 28.3 402.389 28.5C397.789 28.8 392.989 29.6 388.389 30.2C369.989 32.3 344.689 37 327.189 41.3C321.589 42.6 316.089 43.9 310.589 45.4C297.189 48.9 283.889 52.9 270.789 57.2L255.489 62.5C252.889 63.4 250.489 64.3 247.889 65.3C240.489 68 233.089 71.2 225.789 74.2C223.489 75.2 220.889 76.2 218.589 77.3C212.689 80 206.789 82.5 200.989 85.4L156.889 108.5L115.889 134.4C114.789 135.1 113.789 135.9 112.789 136.6L102.289 144.1C101.789 144.5 101.289 144.8 100.789 145.2L88.9887 154.1C87.8887 154.9 87.1887 155.5 86.1887 156.3C81.2887 160 76.5887 164 71.7887 167.8L66.1887 172.5C65.2887 173.3 64.3887 174 63.3887 174.8L56.3887 180.8C55.7887 181.3 55.5887 181.6 54.9887 182.1C53.5887 183.2 52.3887 184.6 50.9887 185.7C45.9887 189.7 48.0887 190.9 51.2887 194.5L57.3887 201.3C57.8887 201.8 58.1887 202.1 58.6887 202.6C59.2887 203.2 59.2887 203.5 59.8887 204L68.4887 213.4C69.0887 214 69.1887 214.2 69.6887 214.8C71.9887 217.6 77.7887 223.2 79.5887 225.6C80.9887 227.4 83.1887 229.2 84.4887 231C86.6887 233.8 91.9887 238.8 94.3887 241.8C95.9887 243.8 97.7887 245.3 99.2887 247.2L114.089 263.4C115.689 265 117.289 268 119.789 268V267.5Z"/>
</mask>
<path fill-rule="evenodd" clip-rule="evenodd" d="M119.789 267.5C121.689 267.5 129.989 259.2 132.089 257.5L144.589 247.2C159.589 235.4 172.389 226 188.389 215.4C189.889 214.4 191.489 213.5 192.989 212.5C205.389 204.3 222.989 194.6 236.489 187.9C249.989 181.2 243.189 184.3 246.589 182.9C250.089 181.4 253.389 179.6 256.889 178.1L261.989 175.8C263.689 175 265.489 174.2 267.389 173.5L277.889 169.1C288.889 164.7 299.789 160.9 311.289 157.1C318.955 154.567 326.755 152.267 334.689 150.2C356.889 144.5 374.889 140.7 397.589 137.5C401.889 136.9 406.389 136.4 410.989 135.8C417.689 134.9 424.789 134.5 431.689 133.9C437.589 133.5 443.889 132.9 449.689 133C451.289 133 451.889 132.8 453.289 132.8C455.755 132.8 458.255 132.8 460.789 132.8C463.289 132.8 465.489 132.6 468.189 132.6C473.189 132.6 477.689 132.9 482.789 132.8L507.789 134.2C513.589 134.8 519.289 135 525.189 135.7C529.489 136.2 534.089 136.8 538.589 137.4C547.089 138.5 556.189 140 564.589 141.7L577.189 144.3C593.089 147.4 615.089 153.7 630.589 158.9C632.689 159.6 634.289 160.2 636.289 160.9L647.489 164.9C654.289 167.1 662.689 170.7 669.089 173.5C675.989 176.6 683.189 179.4 689.989 182.9C691.589 183.7 693.389 184.5 694.989 185.3L712.389 194.3C713.289 194.8 713.889 195.2 714.889 195.7C718.189 197.3 721.389 199.4 724.589 201.1L734.089 206.7C735.689 207.7 737.289 208.6 738.889 209.6C739.589 210 740.289 210.5 741.089 211C748.389 215.6 759.389 222.6 766.189 227.7L774.989 234.1C776.489 235.1 777.889 236.2 779.289 237.3C779.989 237.9 780.689 238.4 781.489 239C786.489 242.7 791.289 246.8 796.189 250.7C799.789 253.5 811.389 263.4 814.489 266.5C817.989 270 819.989 266.1 822.289 263.9L836.689 248.1C837.089 247.6 837.489 247.3 837.889 246.9L856.889 226C857.289 225.5 857.689 225.2 858.089 224.8C861.189 221.7 863.989 218.2 866.989 214.9L873.689 207.7C876.189 204.9 880.189 200.3 882.589 197.9L886.089 194.2C887.889 192.2 888.889 190.9 888.989 189.9V189.1C888.689 187.7 886.989 186.5 884.389 184.2C872.589 173.7 860.489 163.4 847.789 153.9C836.889 145.8 825.989 137.7 814.589 130.2C810.489 127.5 806.289 124.6 802.089 122.1C797.889 119.6 793.689 116.7 789.289 114.2L742.589 88.7L732.189 83.7C726.289 80.8 720.289 78.3 714.289 75.7C699.689 69.3 684.689 63.6 669.589 58.5C652.689 52.9 630.589 45.9 613.589 42.3L570.689 33.6C560.889 31.8 543.289 29.3 534.389 28.6C531.389 28.4 528.089 27.8 524.989 27.6C508.489 26.6 493.289 25.1 475.789 25.2C473.989 25.2 473.089 25 471.289 25H465.389C463.689 25 462.789 25.2 460.989 25.2L445.589 25.4C440.789 25.4 435.789 26.1 430.989 26.1C429.789 26.1 429.689 26.3 428.589 26.3C427.689 26.3 426.889 26.3 425.989 26.3L411.789 27.5C408.689 27.7 405.589 28.3 402.389 28.5C397.789 28.8 392.989 29.6 388.389 30.2C369.989 32.3 344.689 37 327.189 41.3C321.589 42.6 316.089 43.9 310.589 45.4C297.189 48.9 283.889 52.9 270.789 57.2L255.489 62.5C252.889 63.4 250.489 64.3 247.889 65.3C240.489 68 233.089 71.2 225.789 74.2C223.489 75.2 220.889 76.2 218.589 77.3C212.689 80 206.789 82.5 200.989 85.4L156.889 108.5L115.889 134.4C114.789 135.1 113.789 135.9 112.789 136.6L102.289 144.1C101.789 144.5 101.289 144.8 100.789 145.2L88.9887 154.1C87.8887 154.9 87.1887 155.5 86.1887 156.3C81.2887 160 76.5887 164 71.7887 167.8L66.1887 172.5C65.2887 173.3 64.3887 174 63.3887 174.8L56.3887 180.8C55.7887 181.3 55.5887 181.6 54.9887 182.1C53.5887 183.2 52.3887 184.6 50.9887 185.7C45.9887 189.7 48.0887 190.9 51.2887 194.5L57.3887 201.3C57.8887 201.8 58.1887 202.1 58.6887 202.6C59.2887 203.2 59.2887 203.5 59.8887 204L68.4887 213.4C69.0887 214 69.1887 214.2 69.6887 214.8C71.9887 217.6 77.7887 223.2 79.5887 225.6C80.9887 227.4 83.1887 229.2 84.4887 231C86.6887 233.8 91.9887 238.8 94.3887 241.8C95.9887 243.8 97.7887 245.3 99.2887 247.2L114.089 263.4C115.689 265 117.289 268 119.789 268V267.5Z" stroke="black" stroke-width="2" mask="url(#path-2-inside-1_86_2)"/>
</g>
<defs>
<clipPath id="clip0_86_2">
<rect width="936" height="333" fill="white"/>
</clipPath>
</defs>
</svg>
