<?xml version="1.0" encoding="UTF-8"?>
<svg id="Layer_2" data-name="Layer 2" xmlns="http://www.w3.org/2000/svg" viewBox="0 0 841.61 243.45">
  <defs>
    <style>
      .cls-1 {
        fill: #fff;
      }

      .cls-1, .cls-2 {
        fill-rule: evenodd;
      }

      .cls-2 {
        fill: none;
        stroke: #1a1a18;
        stroke-miterlimit: 22.93;
        stroke-width: .57px;
      }
    </style>
  </defs>
  <g id="Layer_1-2" data-name="Layer 1">
    <g>
      <path class="cls-1" d="M72.12,243.16c1.89,0,10.24-8.34,12.34-9.98l12.48-10.32c14.99-11.78,27.83-21.18,43.81-31.79,1.48-.99,3.07-1.89,4.56-2.88,12.38-8.19,29.98-17.87,43.52-24.64,3.34-1.67,6.68-3.55,10.14-4.98,3.53-1.46,6.77-3.32,10.32-4.8l5.14-2.3c1.68-.81,3.54-1.56,5.38-2.3l10.52-4.36c11.03-4.43,21.88-8.23,33.38-11.98,7.7-2.52,15.5-4.84,23.38-6.86,22.18-5.69,40.22-9.47,62.86-12.74,4.31-.62,8.83-1.08,13.44-1.68,6.73-.87,13.82-1.34,20.69-1.86,5.87-.45,12.16-.97,18.02-.94,1.62,0,2.18-.24,3.59-.25,2.47-.03,4.98,0,7.45.01,2.54,0,4.66-.24,7.44-.24,4.98,0,9.47.27,14.64.24l24.99,1.41c5.8.62,11.55.82,17.42,1.54,4.34.53,8.88,1.09,13.44,1.68,8.47,1.11,17.57,2.58,25.97,4.27l12.56,2.56c15.94,3.15,37.9,9.39,53.37,14.55,2.06.69,3.69,1.31,5.7,1.98l11.16,3.96c6.75,2.24,15.24,5.78,21.64,8.6,6.93,3.06,14.06,5.95,20.87,9.37,1.64.83,3.39,1.58,5.04,2.4l17.44,8.96c.92.5,1.55.9,2.48,1.36,3.29,1.62,6.46,3.68,9.68,5.44l9.53,5.59c1.62.98,3.16,1.94,4.77,2.91.72.43,1.44.89,2.22,1.38,7.31,4.6,18.26,11.55,25.09,16.67l8.75,6.36c1.48,1.01,2.89,2.11,4.28,3.16.73.56,1.41,1.12,2.16,1.68,5,3.74,9.82,7.81,14.74,11.66,3.6,2.81,15.17,12.66,18.31,15.77,3.48,3.45,5.55-.43,7.8-2.65l14.4-15.84c.42-.46.76-.75,1.21-1.19l18.95-20.89c.42-.46.76-.75,1.21-1.19,3.12-3.1,5.89-6.62,8.87-9.85l6.72-7.2c2.48-2.81,6.45-7.44,8.88-9.84l3.49-3.71c1.84-1.99,2.75-3.28,2.94-4.33v-.77c-.26-1.41-2-2.55-4.62-4.87-11.84-10.52-23.92-20.84-36.63-30.33-10.9-8.14-21.82-16.17-33.15-23.73-4.08-2.72-8.26-5.62-12.49-8.15-4.25-2.54-8.42-5.43-12.78-7.86l-46.73-25.51-10.4-4.96c-5.86-2.95-11.94-5.37-17.91-8.01-14.6-6.44-29.56-12.12-44.74-17.18-16.93-5.64-38.96-12.64-56.01-16.23l-42.92-8.68c-9.77-1.77-27.43-4.35-36.33-4.95-3.04-.2-6.29-.76-9.37-.95-16.51-1.02-31.69-2.5-49.2-2.4-1.78.01-2.73-.23-4.53-.24h-.52c-1.57,0-3.14,0-4.7,0h-.72c-1.68.02-2.6.25-4.41.24l-15.36.24c-4.81-.02-9.82.67-14.65.71-1.24.01-1.32.19-2.39.25-.87.05-1.74-.06-2.61.03l-14.19,1.17c-3.09.17-6.19.75-9.36.96-4.59.31-9.35,1.13-13.95,1.65-18.4,2.1-43.71,6.81-61.18,11.06-5.57,1.35-11.11,2.63-16.56,4.08-13.36,3.54-26.73,7.51-39.75,11.85l-15.3,5.34c-2.61.9-4.98,1.81-7.55,2.77-7.38,2.74-14.79,5.89-22.08,8.88-2.33.96-4.89,2.04-7.23,3.09-5.93,2.66-11.82,5.18-17.6,8.08l-44.08,23.12-41.04,25.92c-1.08.71-2.06,1.46-3.12,2.16l-10.52,7.48c-.55.41-.97.66-1.55,1.09l-11.79,8.85c-1.06.79-1.8,1.42-2.85,2.19-4.94,3.69-9.57,7.69-14.44,11.48l-5.6,4.72c-.88.84-1.83,1.49-2.75,2.29l-6.96,6c-.58.52-.76.79-1.38,1.26-1.44,1.1-2.64,2.51-4.04,3.64-4.99,3.99-2.92,5.17.26,8.79l6.12,6.84c.49.51.84.8,1.33,1.31.57.59.65.87,1.19,1.45l8.65,9.35c.61.61.68.81,1.21,1.43,2.3,2.75,8.08,8.44,9.87,10.77,1.42,1.83,3.58,3.6,4.94,5.38,2.15,2.81,7.53,7.83,9.88,10.76,1.57,1.97,3.38,3.53,4.93,5.39l14.78,16.18c1.55,1.61,3.23,4.62,5.7,4.62Z"/>
      <path class="cls-2" d="M72.12,243.16c1.89,0,10.24-8.34,12.34-9.98l12.48-10.32c14.99-11.78,27.83-21.18,43.81-31.79,1.48-.99,3.07-1.89,4.56-2.88,12.38-8.19,29.98-17.87,43.52-24.64,3.34-1.67,6.68-3.55,10.14-4.98,3.53-1.46,6.77-3.32,10.32-4.8l5.14-2.3c1.68-.81,3.54-1.56,5.38-2.3l10.52-4.36c11.03-4.43,21.88-8.23,33.38-11.98,7.7-2.52,15.5-4.84,23.38-6.86,22.18-5.69,40.22-9.47,62.86-12.74,4.31-.62,8.83-1.08,13.44-1.68,6.73-.87,13.82-1.34,20.69-1.86,5.87-.45,12.16-.97,18.02-.94,1.62,0,2.18-.24,3.59-.25,2.47-.03,4.98,0,7.45.01,2.54,0,4.66-.24,7.44-.24,4.98,0,9.47.27,14.64.24l24.99,1.41c5.8.62,11.55.82,17.42,1.54,4.34.53,8.88,1.09,13.44,1.68,8.47,1.11,17.57,2.58,25.97,4.27l12.56,2.56c15.94,3.15,37.9,9.39,53.37,14.55,2.06.69,3.69,1.31,5.7,1.98l11.16,3.96c6.75,2.24,15.24,5.78,21.64,8.6,6.93,3.06,14.06,5.95,20.87,9.37,1.64.83,3.39,1.58,5.04,2.4l17.44,8.96c.92.5,1.55.9,2.48,1.36,3.29,1.62,6.46,3.68,9.68,5.44l9.53,5.59c1.62.98,3.16,1.94,4.77,2.91.72.43,1.44.89,2.22,1.38,7.31,4.6,18.26,11.55,25.09,16.67l8.75,6.36c1.48,1.01,2.89,2.11,4.28,3.16.73.56,1.41,1.12,2.16,1.68,5,3.74,9.82,7.81,14.74,11.66,3.6,2.81,15.17,12.66,18.31,15.77,3.48,3.45,5.55-.43,7.8-2.65l14.4-15.84c.42-.46.76-.75,1.21-1.19l18.95-20.89c.42-.46.76-.75,1.21-1.19,3.12-3.1,5.89-6.62,8.87-9.85l6.72-7.2c2.48-2.81,6.45-7.44,8.88-9.84l3.49-3.71c1.84-1.99,2.75-3.28,2.94-4.33v-.77c-.26-1.41-2-2.55-4.62-4.87-11.84-10.52-23.92-20.84-36.63-30.33-10.9-8.14-21.82-16.17-33.15-23.73-4.08-2.72-8.26-5.62-12.49-8.15-4.25-2.54-8.42-5.43-12.78-7.86l-46.73-25.51-10.4-4.96c-5.86-2.95-11.94-5.37-17.91-8.01-14.6-6.44-29.56-12.12-44.74-17.18-16.93-5.64-38.96-12.64-56.01-16.23l-42.92-8.68c-9.77-1.77-27.43-4.35-36.33-4.95-3.04-.2-6.29-.76-9.37-.95-16.51-1.02-31.69-2.5-49.2-2.4-1.78.01-2.73-.23-4.53-.24h-.52c-1.57,0-3.14,0-4.7,0h-.72c-1.68.02-2.6.25-4.41.24l-15.36.24c-4.81-.02-9.82.67-14.65.71-1.24.01-1.32.19-2.39.25-.87.05-1.74-.06-2.61.03l-14.19,1.17c-3.09.17-6.19.75-9.36.96-4.59.31-9.35,1.13-13.95,1.65-18.4,2.1-43.71,6.81-61.18,11.06-5.57,1.35-11.11,2.63-16.56,4.08-13.36,3.54-26.73,7.51-39.75,11.85l-15.3,5.34c-2.61.9-4.98,1.81-7.55,2.77-7.38,2.74-14.79,5.89-22.08,8.88-2.33.96-4.89,2.04-7.23,3.09-5.93,2.66-11.82,5.18-17.6,8.08l-44.08,23.12-41.04,25.92c-1.08.71-2.06,1.46-3.12,2.16l-10.52,7.48c-.55.41-.97.66-1.55,1.09l-11.79,8.85c-1.06.79-1.8,1.42-2.85,2.19-4.94,3.69-9.57,7.69-14.44,11.48l-5.6,4.72c-.88.84-1.83,1.49-2.75,2.29l-6.96,6c-.58.52-.76.79-1.38,1.26-1.44,1.1-2.64,2.51-4.04,3.64-4.99,3.99-2.92,5.17.26,8.79l6.12,6.84c.49.51.84.8,1.33,1.31.57.59.65.87,1.19,1.45l8.65,9.35c.61.61.68.81,1.21,1.43,2.3,2.75,8.08,8.44,9.87,10.77,1.42,1.83,3.58,3.6,4.94,5.38,2.15,2.81,7.53,7.83,9.88,10.76,1.57,1.97,3.38,3.53,4.93,5.39l14.78,16.18c1.55,1.61,3.23,4.62,5.7,4.62Z"/>
    </g>
  </g>
</svg>